<svg width="263" height="67" viewBox="0 0 263 67" fill="none" xmlns="http://www.w3.org/2000/svg">
<path d="M230.113 65.3909V39.289V17.3707H242.846V36.4696H243.573C243.937 31.3766 244.635 27.3749 245.665 24.4646C246.757 21.4936 248.091 19.4018 249.667 18.1892C251.304 16.9159 253.123 16.2793 255.124 16.2793C256.215 16.2793 257.337 16.4309 258.489 16.734C259.701 17.0372 260.884 17.5222 262.036 18.1892L261.308 34.5597C259.974 33.7715 258.671 33.1955 257.397 32.8317C256.124 32.4073 254.912 32.1951 253.76 32.1951C251.819 32.1951 250.182 32.7408 248.848 33.8321C247.515 34.9235 246.484 36.5302 245.756 38.6524C245.089 40.7745 244.756 43.3513 244.756 46.3829V65.3909H230.113Z" fill="white"/>
<path d="M203.915 66.6644C199.368 66.6644 195.548 66.0278 192.456 64.7545C189.424 63.4206 186.968 61.632 185.089 59.3886C183.209 57.0846 181.845 54.4774 180.996 51.5671C180.208 48.6568 179.814 45.5949 179.814 42.3815C179.814 38.9255 180.238 35.621 181.087 32.4682C181.997 29.3153 183.361 26.5263 185.18 24.101C187.059 21.6151 189.454 19.6749 192.365 18.2804C195.336 16.8252 198.883 16.0977 203.006 16.0977C207.129 16.0977 210.645 16.8252 213.555 18.2804C216.526 19.6749 218.891 21.6454 220.649 24.192C222.408 26.7385 223.529 29.6791 224.014 33.0139C224.56 36.3486 224.499 39.9562 223.833 43.8366L189 44.3823V36.3789L212.555 35.9242L210.645 40.5625C211.009 37.7735 210.948 35.4391 210.463 33.5596C210.039 31.6193 209.22 30.1642 208.008 29.1941C206.795 28.1633 205.128 27.648 203.006 27.648C200.762 27.648 198.974 28.224 197.64 29.376C196.306 30.528 195.366 32.165 194.82 34.2871C194.275 36.3486 194.002 38.8042 194.002 41.6539C194.002 46.565 194.82 50.1423 196.457 52.3857C198.094 54.629 200.611 55.7507 204.006 55.7507C205.461 55.7507 206.674 55.5688 207.644 55.205C208.614 54.8412 209.402 54.3259 210.008 53.6589C210.615 52.9313 211.039 52.0825 211.282 51.1124C211.524 50.0817 211.615 48.9297 211.555 47.6564L225.015 48.384C225.197 50.3848 224.985 52.4463 224.378 54.5684C223.833 56.6905 222.771 58.661 221.195 60.48C219.619 62.2989 217.406 63.7844 214.556 64.9364C211.767 66.0884 208.22 66.6644 203.915 66.6644Z" fill="white"/>
<path d="M145.693 66.6645C142.237 66.6645 139.114 65.7247 136.325 63.8451C133.597 61.9655 131.414 59.1158 129.777 55.296C128.201 51.4762 127.413 46.656 127.413 40.8354C127.413 35.3179 128.14 30.7402 129.595 27.1023C131.05 23.4038 133.112 20.6451 135.78 18.8261C138.448 17.0072 141.57 16.0977 145.147 16.0977C147.936 16.0977 150.392 16.6737 152.514 17.8257C154.697 18.9777 156.485 20.7967 157.88 23.2826C159.275 25.7685 160.245 29.0122 160.79 33.0139H161.609C161.306 30.9525 161.002 28.9213 160.699 26.9205C160.396 24.9196 160.154 22.9794 159.972 21.0998C159.85 19.2202 159.79 17.4619 159.79 15.8249V1.72803H174.523V48.475V65.3912H161.7V50.5668H161.063C160.396 54.0834 159.365 57.0543 157.971 59.4796C156.637 61.8442 154.939 63.6329 152.878 64.8455C150.877 66.0581 148.482 66.6645 145.693 66.6645ZM150.877 54.9322C152.029 54.9322 153.151 54.6897 154.242 54.2047C155.333 53.659 156.304 52.8405 157.152 51.7491C158.001 50.6577 158.668 49.2935 159.153 47.6564C159.699 46.0194 159.972 44.0792 159.972 41.8358V41.1992C159.972 39.3802 159.79 37.7735 159.426 36.379C159.062 34.9238 158.577 33.7112 157.971 32.7411C157.365 31.7103 156.667 30.8918 155.879 30.2855C155.091 29.6186 154.242 29.1335 153.333 28.8303C152.484 28.5272 151.635 28.3756 150.786 28.3756C148.906 28.3756 147.33 29.0122 146.057 30.2855C144.784 31.5588 143.844 33.2261 143.237 35.2876C142.631 37.2884 142.328 39.4712 142.328 41.8358C142.328 44.2005 142.661 46.3832 143.328 48.384C143.995 50.3849 144.965 51.9916 146.239 53.2042C147.512 54.3562 149.058 54.9322 150.877 54.9322Z" fill="white"/>
<path d="M93.2917 66.6645C89.8357 66.6645 86.7131 65.7247 83.9241 63.8451C81.1957 61.9655 79.0129 59.1158 77.3759 55.296C75.7994 51.4762 75.0112 46.656 75.0112 40.8354C75.0112 35.3179 75.7388 30.7402 77.194 27.1023C78.6491 23.4038 80.7106 20.6451 83.3784 18.8261C86.0462 17.0072 89.1687 16.0977 92.746 16.0977C95.535 16.0977 97.9906 16.6737 100.113 17.8257C102.295 18.9777 104.084 20.7967 105.479 23.2826C106.873 25.7685 107.843 29.0122 108.389 33.0139H109.207C108.904 30.9525 108.601 28.9213 108.298 26.9205C107.995 24.9196 107.752 22.9794 107.57 21.0998C107.449 19.2202 107.388 17.4619 107.388 15.8249V1.72803H122.122V48.475V65.3912H109.298V50.5668H108.662C107.995 54.0834 106.964 57.0543 105.57 59.4796C104.236 61.8442 102.538 63.6329 100.477 64.8455C98.4757 66.0581 96.0807 66.6645 93.2917 66.6645ZM98.4757 54.9322C99.6277 54.9322 100.749 54.6897 101.841 54.2047C102.932 53.659 103.902 52.8405 104.751 51.7491C105.6 50.6577 106.267 49.2935 106.752 47.6564C107.298 46.0194 107.57 44.0792 107.57 41.8358V41.1992C107.57 39.3802 107.389 37.7735 107.025 36.379C106.661 34.9238 106.176 33.7112 105.57 32.7411C104.963 31.7103 104.266 30.8918 103.478 30.2855C102.69 29.6186 101.841 29.1335 100.931 28.8303C100.082 28.5272 99.2336 28.3756 98.3847 28.3756C96.5051 28.3756 94.9287 29.0122 93.6554 30.2855C92.3822 31.5588 91.4424 33.2261 90.8361 35.2876C90.2298 37.2884 89.9266 39.4712 89.9266 41.8358C89.9266 44.2005 90.2601 46.3832 90.927 48.384C91.594 50.3849 92.5641 51.9916 93.8373 53.2042C95.1106 54.3562 96.6567 54.9322 98.4757 54.9322Z" fill="white"/>
<path d="M54.9687 65.3912V17.371H69.7022V65.3912H54.9687ZM62.2445 13.9149C59.4554 13.9149 57.303 13.3389 55.7872 12.1869C54.3321 10.9743 53.6045 9.24632 53.6045 7.00295C53.6045 4.69895 54.3321 2.97095 55.7872 1.81895C57.303 0.606316 59.4554 0 62.2445 0C65.0942 0 67.2466 0.606316 68.7018 1.81895C70.2175 3.03158 70.9754 4.75958 70.9754 7.00295C70.9754 9.18569 70.2175 10.8834 68.7018 12.096C67.2466 13.3086 65.0942 13.9149 62.2445 13.9149Z" fill="white"/>
<path d="M0 65.391V5.36572H24.192C27.8905 5.36572 31.1646 5.6992 34.0143 6.36614C36.9246 7.03309 39.3802 8.03351 41.3811 9.3674C43.4425 10.6407 44.9886 12.2474 46.0194 14.1876C47.1107 16.1278 47.6564 18.4015 47.6564 21.0087C47.6564 23.4339 47.1411 25.6167 46.1103 27.5569C45.1402 29.4971 43.5335 31.0735 41.2901 32.2861C39.1074 33.4381 36.2274 34.1657 32.6501 34.4689V35.2874C38.7739 35.5906 43.2 37.0154 45.9284 39.5619C48.7175 42.1085 50.112 45.4735 50.112 49.6571C50.112 53.1737 49.2025 56.084 47.3836 58.388C45.5646 60.692 42.8968 62.4504 39.3802 63.663C35.9242 64.815 31.6194 65.391 26.4657 65.391H0ZM14.7335 53.5678H25.8291C28.9213 53.5678 31.3162 53.0221 33.0139 51.9308C34.7116 50.7788 35.5604 49.172 35.5604 47.1106C35.5604 44.8066 34.5903 43.1089 32.6501 42.0175C30.7705 40.8655 27.9208 40.2895 24.1011 40.2895H14.7335V53.5678ZM14.7335 30.2853H22.6459C26.1019 30.2853 28.7394 29.7093 30.5583 28.5573C32.3773 27.4053 33.2867 25.7076 33.2867 23.4642C33.2867 21.3421 32.4682 19.7657 30.8312 18.735C29.1941 17.6436 26.7385 17.0979 23.4644 17.0979H14.7335V30.2853Z" fill="white"/>
</svg>
